<?xml version="1.0" encoding="UTF-8"?>
<svg version="1.1" xmlns="http://www.w3.org/2000/svg" viewBox="222 189 580 618">
<path d="M0,0 L9,0 L55,17 L98,33 L141,49 L167,59 L171,65 L171,223 L167,227 L150,235 L121,248 L86,264 L59,276 L32,288 L7,299 L0,298 L-31,284 L-60,271 L-89,258 L-118,245 L-158,227 L-161,223 L-161,65 L-155,58 L-115,43 L-75,28 L-32,12 Z " fill="#C1C5CC" transform="translate(507,189)"/>
<path d="M0,0 L9,0 L55,17 L98,33 L141,49 L167,59 L171,65 L171,223 L167,227 L150,235 L121,248 L86,264 L59,276 L32,288 L7,299 L0,298 L-31,284 L-60,271 L-89,258 L-118,245 L-158,227 L-161,223 L-161,65 L-155,58 L-115,43 L-75,28 L-32,12 Z M3,14 L-27,25 L-80,45 L-109,56 L-144,69 L-146,70 L-146,217 L-110,233 L-71,250 L-28,269 L4,283 L10,281 L11,127 L41,115 L81,99 L149,72 L154,70 L150,67 L122,57 L82,42 L36,25 L9,15 Z " fill="#99A3AE" transform="translate(507,189)"/>
<path d="M0,0 L43,0 L43,12 L5,12 L5,33 L3,70 L-173,70 L-175,83 L-179,107 L-184,136 L-190,169 L-191,177 L-10,177 L-10,191 L-15,250 L-17,275 L184,275 L182,258 L178,211 L176,189 L176,177 L358,177 L353,153 L346,113 L339,73 L339,70 L164,70 L162,52 L160,12 L123,12 L123,0 L166,0 L172,4 L174,7 L176,29 L177,46 L177,57 L340,57 L349,60 L353,65 L359,97 L364,124 L367,140 L373,174 L373,181 L370,186 L363,190 L360,191 L191,191 L197,249 L199,271 L199,278 L196,283 L193,286 L188,288 L-20,288 L-28,285 L-32,280 L-32,264 L-25,191 L-195,191 L-203,187 L-206,184 L-207,181 L-207,174 L-198,125 L-194,100 L-189,74 L-187,64 L-181,59 L-177,57 L-11,57 L-9,18 L-8,7 L-4,2 Z " fill="#6E7C8B" transform="translate(429,519)"/>
<path d="M0,0 L9,2 L63,22 L133,48 L151,55 L149,57 L118,69 L83,83 L48,97 L13,111 L8,113 L7,267 L1,269 L-4,266 L-4,112 L-9,111 L-38,100 L-74,86 L-123,67 L-148,58 L-147,55 L-101,38 L-59,22 L-16,6 Z " fill="#E8EAEF" transform="translate(510,203)"/>
<path d="M0,0 L166,0 L168,23 L172,67 L172,89 L-6,89 L-6,77 L-3,38 Z " fill="#66BCED" transform="translate(429,696)"/>
<path d="M0,0 L162,0 L161,18 L158,59 L155,90 L-14,90 L-13,76 Z " fill="#67BCEE" transform="translate(263,597)"/>
<path d="M0,0 L162,0 L164,6 L170,42 L174,64 L176,76 L178,90 L8,90 L4,42 L1,9 Z " fill="#66BCED" transform="translate(598,597)"/>
<path d="M0,0 L9,0 L55,17 L98,33 L141,49 L167,59 L171,65 L171,223 L167,227 L150,235 L121,248 L86,264 L59,276 L32,288 L7,299 L0,298 L-31,284 L-60,271 L-89,258 L-118,245 L-158,227 L-161,223 L-161,65 L-155,58 L-115,43 L-75,28 L-32,12 Z M3,14 L-27,25 L-80,45 L-109,56 L-144,69 L-146,70 L-146,217 L-110,233 L-71,250 L-28,269 L4,283 L10,281 L39,268 L75,252 L111,236 L140,223 L156,216 L156,69 L130,60 L82,42 L36,25 L9,15 Z " fill="#6C7B8A" transform="translate(507,189)"/>
<path d="M0,0 L55,0 L57,20 L61,69 L62,77 L62,90 L-104,90 L-102,55 L-101,48 L-98,1 L-41,1 L-26,15 L-23,18 L-18,17 L-4,3 Z " fill="#66BCED" transform="translate(533,597)"/>
<path d="M0,0 L6,2 L28,13 L35,12 L51,4 L59,0 L62,0 L62,50 L96,50 L90,57 L80,66 L70,75 L57,87 L45,98 L37,105 L33,109 L28,108 L12,93 L2,84 L-13,70 L-23,61 L-31,54 L-35,50 L0,50 Z " fill="#4AA9E0" transform="translate(481,491)"/>
<path d="M0,0 L7,1 L28,12 L45,24 L59,36 L70,47 L73,51 L78,49 L96,36 L97,36 L97,111 L86,108 L37,91 L20,85 L20,83 L36,74 L41,71 L39,67 L32,60 L28,55 L17,46 L9,39 L-6,29 L-20,21 L-31,15 L-27,12 Z " fill="#4AA7DD" transform="translate(661,437)"/>
<path d="M0,0 L7,1 L32,12 L36,15 L19,24 L5,33 L-11,45 L-22,55 L-29,61 L-36,69 L-36,71 L-15,83 L-15,85 L-70,104 L-91,111 L-92,111 L-92,36 L-81,43 L-71,51 L-67,50 L-55,37 L-44,27 L-30,17 L-14,7 Z " fill="#4BA8DD" transform="translate(358,437)"/>
<path d="M0,0 L5,1 L15,5 L13,7 L-18,19 L-53,33 L-88,47 L-123,61 L-128,63 L-129,217 L-135,219 L-140,216 L-140,62 L-145,61 L-174,50 L-210,36 L-259,17 L-284,8 L-283,5 L-275,2 L-269,2 L-239,13 L-219,21 L-179,36 L-153,46 L-137,52 L-131,52 L-98,39 L-78,31 L-62,25 L-42,17 L-26,11 L-4,2 L0,2 Z " fill="#FCFCFC" transform="translate(646,253)"/>
<path d="M0,0 L2,0 L4,35 L-36,35 L-30,28 L-22,20 L-14,13 L-1,1 Z " fill="#60B5E8" transform="translate(579,554)"/>
<path d="M0,0 L5,3 L15,13 L23,20 L31,28 L38,34 L38,35 L-1,35 L-1,14 Z " fill="#5EB4E7" transform="translate(443,554)"/>
<path d="M0,0 L1,3 L-5,8 L-5,5 Z " fill="#70BCEB" transform="translate(557,574)"/>
</svg>
